{
	"asset":{
		"generator":"Khronos glTF Blender I/O v4.2.60",
		"version":"2.0"
	},
	"scene":0,
	"scenes":[
		{
			"name":"Scene",
			"nodes":[
				0,
				1,
				2,
				3,
				4,
				5,
				6,
				7,
				8,
				9,
				10,
				11,
				12
			]
		}
	],
	"nodes":[
		{
			"name":"Empty",
			"rotation":[
				-0.5,
				0.5,
				0.5,
				0.5
			],
			"scale":[
				-1.5800000429153442,
				-1.5800001621246338,
				-1.5800001621246338
			],
			"translation":[
				-1.5605500936508179,
				2.799999952316284,
				0
			]
		},
		{
			"mesh":0,
			"name":"Cube",
			"translation":[
				0,
				4.053593635559082,
				0
			]
		},
		{
			"mesh":1,
			"name":"Circle",
			"scale":[
				0.08799999207258224,
				0.08799999207258224,
				0.08799999207258224
			],
			"translation":[
				0,
				4.00351095199585,
				0
			]
		},
		{
			"mesh":2,
			"name":"Cube.001",
			"rotation":[
				0.07882998138666153,
				0.33762243390083313,
				0.08901142328977585,
				0.9337419867515564
			],
			"scale":[
				0.06671874970197678,
				0.11455729603767395,
				0.11455730348825455
			],
			"translation":[
				0.03471999987959862,
				3.9078969955444336,
				-0.03875141218304634
			]
		},
		{
			"mesh":3,
			"name":"Cube.002",
			"translation":[
				0.029999999329447746,
				2.9572606086730957,
				0
			]
		},
		{
			"mesh":4,
			"name":"Cube.003",
			"translation":[
				0.029999999329447746,
				2.9572606086730957,
				0
			]
		},
		{
			"mesh":5,
			"name":"Plane",
			"rotation":[
				-0.3309912383556366,
				0.3456321358680725,
				-0.6160803437232971,
				0.6256422400474548
			],
			"scale":[
				0.11652957648038864,
				0.11652954667806625,
				0.11652956157922745
			],
			"translation":[
				0.1355898380279541,
				3.253112554550171,
				-0.22560624778270721
			]
		},
		{
			"mesh":6,
			"name":"Plane.001",
			"rotation":[
				-0.37487339973449707,
				-0.05468952655792236,
				-0.4657388925552368,
				0.7997288703918457
			],
			"scale":[
				0.30000007152557373,
				0.30000001192092896,
				0.30000001192092896
			],
			"translation":[
				0.23656325042247772,
				2.8778295516967773,
				-0.2016536295413971
			]
		},
		{
			"mesh":7,
			"name":"Cube.004",
			"translation":[
				0.029999999329447746,
				2.9572606086730957,
				0
			]
		},
		{
			"mesh":8,
			"name":"Plane.002",
			"rotation":[
				-0.1017872765660286,
				0.15416748821735382,
				-0.6088905334472656,
				0.7714428305625916
			],
			"scale":[
				0.06600001454353333,
				0.06600001454353333,
				0.06600002199411392
			],
			"translation":[
				0.2759586274623871,
				2.805487871170044,
				-0.1575625091791153
			]
		},
		{
			"mesh":9,
			"name":"Plane.003",
			"rotation":[
				-0.1017872765660286,
				0.15416748821735382,
				-0.6088905334472656,
				0.7714428305625916
			],
			"scale":[
				0.08105918020009995,
				0.0669989064335823,
				0.066016785800457
			],
			"translation":[
				0.2826384902000427,
				2.7861368656158447,
				-0.16156284511089325
			]
		},
		{
			"mesh":10,
			"name":"Cylinder",
			"rotation":[
				0.03962264209985733,
				0.034786004573106766,
				0.09390433132648468,
				0.9941840767860413
			],
			"scale":[
				0.40965670347213745,
				0.4918374717235565,
				0.40965670347213745
			],
			"translation":[
				0.24691572785377502,
				2.835893154144287,
				-0.19978070259094238
			]
		},
		{
			"mesh":11,
			"name":"Cylinder.001",
			"rotation":[
				0.11865662783384323,
				0.027198638767004013,
				0.0963759645819664,
				0.987872838973999
			],
			"scale":[
				0.40965670347213745,
				0.4918375015258789,
				0.40965670347213745
			],
			"translation":[
				0.24103377759456635,
				2.835893154144287,
				-0.20870836079120636
			]
		}
	],
	"materials":[
		{
			"doubleSided":true,
			"name":"Material.002"
		},
		{
			"doubleSided":true,
			"name":"Material.003"
		},
		{
			"doubleSided":true,
			"name":"Material.006"
		},
		{
			"doubleSided":true,
			"name":"Material.005"
		},
		{
			"doubleSided":true,
			"name":"Material.007"
		},
		{
			"doubleSided":true,
			"name":"Material.012"
		},
		{
			"doubleSided":true,
			"name":"Material.004"
		},
		{
			"doubleSided":true,
			"name":"Material.008"
		},
		{
			"alphaMode":"BLEND",
			"doubleSided":true,
			"name":"Material.001",
			"pbrMetallicRoughness":{
				"baseColorTexture":{
					"index":0
				},
				"metallicFactor":0,
				"roughnessFactor":0.16363635659217834
			}
		},
		{
			"alphaMode":"BLEND",
			"doubleSided":true,
			"name":"Material.009",
			"pbrMetallicRoughness":{
				"baseColorTexture":{
					"index":1
				},
				"metallicFactor":0,
				"roughnessFactor":0.16363635659217834
			}
		},
		{
			"doubleSided":true,
			"name":"Material.011"
		},
		{
			"doubleSided":true,
			"name":"Material.010"
		}
	],
	"meshes":[
		{
			"name":"Cube.001",
			"primitives":[
				{
					"attributes":{
						"POSITION":0,
						"NORMAL":1,
						"TEXCOORD_0":2
					},
					"indices":3,
					"material":0
				},
				{
					"attributes":{
						"POSITION":4,
						"NORMAL":5,
						"TEXCOORD_0":6
					},
					"indices":7,
					"material":1
				}
			]
		},
		{
			"name":"Circle",
			"primitives":[
				{
					"attributes":{
						"POSITION":8,
						"NORMAL":9,
						"TEXCOORD_0":10
					},
					"indices":11,
					"material":2
				}
			]
		},
		{
			"name":"Cube.002",
			"primitives":[
				{
					"attributes":{
						"POSITION":12,
						"NORMAL":13,
						"TEXCOORD_0":14
					},
					"indices":15,
					"material":3
				}
			]
		},
		{
			"name":"Cube.003",
			"primitives":[
				{
					"attributes":{
						"POSITION":16,
						"NORMAL":17,
						"TEXCOORD_0":18
					},
					"indices":19,
					"material":4
				}
			]
		},
		{
			"name":"Cube.004",
			"primitives":[
				{
					"attributes":{
						"POSITION":20,
						"NORMAL":21,
						"TEXCOORD_0":22
					},
					"indices":23,
					"material":5
				}
			]
		},
		{
			"name":"Plane.001",
			"primitives":[
				{
					"attributes":{
						"POSITION":24,
						"NORMAL":25,
						"TEXCOORD_0":26
					},
					"indices":27,
					"material":6
				}
			]
		},
		{
			"name":"Plane.002",
			"primitives":[
				{
					"attributes":{
						"POSITION":28,
						"NORMAL":29,
						"TEXCOORD_0":30
					},
					"indices":31,
					"material":7
				}
			]
		},
		{
			"name":"Cube.005",
			"primitives":[
				{
					"attributes":{
						"POSITION":32,
						"NORMAL":33,
						"TEXCOORD_0":34
					},
					"indices":35,
					"material":8
				}
			]
		},
		{
			"name":"Plane.003",
			"primitives":[
				{
					"attributes":{
						"POSITION":36,
						"NORMAL":37,
						"TEXCOORD_0":38
					},
					"indices":39,
					"material":9
				}
			]
		},
		{
			"name":"Plane.004",
			"primitives":[
				{
					"attributes":{
						"POSITION":40,
						"NORMAL":41,
						"TEXCOORD_0":42
					},
					"indices":39,
					"material":9
				}
			]
		},
		{
			"name":"Cylinder.001",
			"primitives":[
				{
					"attributes":{
						"POSITION":43,
						"NORMAL":44,
						"TEXCOORD_0":45
					},
					"indices":46,
					"material":10
				}
			]
		},
		{
			"name":"Cylinder.002",
			"primitives":[
				{
					"attributes":{
						"POSITION":47,
						"NORMAL":48,
						"TEXCOORD_0":49
					},
					"indices":46,
					"material":11
				}
			]
		}
	],
	"textures":[
		{
			"sampler":0,
			"source":0
		},
		{
			"sampler":0,
			"source":0
		}
	],
	"images":[
		{
			"mimeType":"image/png",
			"name":"tex01",
			"uri":"tex01.png"
		}
	],
	"accessors":[
		{
			"bufferView":0,
			"componentType":5126,
			"count":530,
			"max":[
				0.34133055806159973,
				-0.171765998005867,
				0.30125102400779724
			],
			"min":[
				-0.2233428806066513,
				-0.9835993051528931,
				-0.30125102400779724
			],
			"type":"VEC3"
		},
		{
			"bufferView":1,
			"componentType":5126,
			"count":530,
			"type":"VEC3"
		},
		{
			"bufferView":2,
			"componentType":5126,
			"count":530,
			"type":"VEC2"
		},
		{
			"bufferView":3,
			"componentType":5123,
			"count":2964,
			"type":"SCALAR"
		},
		{
			"bufferView":4,
			"componentType":5126,
			"count":212,
			"max":[
				0.32727351784706116,
				-0.16464224457740784,
				0.10586296021938324
			],
			"min":[
				-0.1886695772409439,
				-0.7878286242485046,
				-0.24104012548923492
			],
			"type":"VEC3"
		},
		{
			"bufferView":5,
			"componentType":5126,
			"count":212,
			"type":"VEC3"
		},
		{
			"bufferView":6,
			"componentType":5126,
			"count":212,
			"type":"VEC2"
		},
		{
			"bufferView":7,
			"componentType":5123,
			"count":1017,
			"type":"SCALAR"
		},
		{
			"bufferView":8,
			"componentType":5126,
			"count":96,
			"max":[
				0.4848671555519104,
				-0.5992454290390015,
				1
			],
			"min":[
				-1.9162479639053345,
				-1.3290148973464966,
				-1
			],
			"type":"VEC3"
		},
		{
			"bufferView":9,
			"componentType":5126,
			"count":96,
			"type":"VEC3"
		},
		{
			"bufferView":10,
			"componentType":5126,
			"count":96,
			"type":"VEC2"
		},
		{
			"bufferView":11,
			"componentType":5123,
			"count":384,
			"type":"SCALAR"
		},
		{
			"bufferView":12,
			"componentType":5126,
			"count":437,
			"max":[
				0.8413687944412231,
				0.15976004302501678,
				0.6351912617683411
			],
			"min":[
				-0.09964167326688766,
				-1.187995195388794,
				-0.5711967945098877
			],
			"type":"VEC3"
		},
		{
			"bufferView":13,
			"componentType":5126,
			"count":437,
			"type":"VEC3"
		},
		{
			"bufferView":14,
			"componentType":5126,
			"count":437,
			"type":"VEC2"
		},
		{
			"bufferView":15,
			"componentType":5123,
			"count":2736,
			"type":"SCALAR"
		},
		{
			"bufferView":16,
			"componentType":5126,
			"count":814,
			"max":[
				0.24862200021743774,
				0.011674280278384686,
				0.39334362745285034
			],
			"min":[
				-0.339050829410553,
				-2.744737386703491,
				-0.39334362745285034
			],
			"type":"VEC3"
		},
		{
			"bufferView":17,
			"componentType":5126,
			"count":814,
			"type":"VEC3"
		},
		{
			"bufferView":18,
			"componentType":5126,
			"count":814,
			"type":"VEC2"
		},
		{
			"bufferView":19,
			"componentType":5123,
			"count":4224,
			"type":"SCALAR"
		},
		{
			"bufferView":20,
			"componentType":5126,
			"count":95,
			"max":[
				0.061540424823760986,
				-2.0657365322113037,
				-0.00428653322160244
			],
			"min":[
				-0.33519935607910156,
				-2.7417874336242676,
				-0.4200174808502197
			],
			"type":"VEC3"
		},
		{
			"bufferView":21,
			"componentType":5126,
			"count":95,
			"type":"VEC3"
		},
		{
			"bufferView":22,
			"componentType":5126,
			"count":95,
			"type":"VEC2"
		},
		{
			"bufferView":23,
			"componentType":5123,
			"count":300,
			"type":"SCALAR"
		},
		{
			"bufferView":24,
			"componentType":5126,
			"count":186,
			"max":[
				0.6090811491012573,
				0.030201103538274765,
				0.716034471988678
			],
			"min":[
				-0.21895386278629303,
				-0.020729610696434975,
				-0.716034471988678
			],
			"type":"VEC3"
		},
		{
			"bufferView":25,
			"componentType":5126,
			"count":186,
			"type":"VEC3"
		},
		{
			"bufferView":26,
			"componentType":5126,
			"count":186,
			"type":"VEC2"
		},
		{
			"bufferView":27,
			"componentType":5123,
			"count":834,
			"type":"SCALAR"
		},
		{
			"bufferView":28,
			"componentType":5126,
			"count":384,
			"max":[
				0.19587832689285278,
				0.06765982508659363,
				0.1958782970905304
			],
			"min":[
				-0.19587832689285278,
				-0.009345817379653454,
				-0.1958782970905304
			],
			"type":"VEC3"
		},
		{
			"bufferView":29,
			"componentType":5126,
			"count":384,
			"type":"VEC3"
		},
		{
			"bufferView":30,
			"componentType":5126,
			"count":384,
			"type":"VEC2"
		},
		{
			"bufferView":31,
			"componentType":5123,
			"count":1944,
			"type":"SCALAR"
		},
		{
			"bufferView":32,
			"componentType":5126,
			"count":32,
			"max":[
				0.2413063496351242,
				-0.015573643147945404,
				0
			],
			"min":[
				-0.27430373430252075,
				-0.14896023273468018,
				-0.3182249069213867
			],
			"type":"VEC3"
		},
		{
			"bufferView":33,
			"componentType":5126,
			"count":32,
			"type":"VEC3"
		},
		{
			"bufferView":34,
			"componentType":5126,
			"count":32,
			"type":"VEC2"
		},
		{
			"bufferView":35,
			"componentType":5123,
			"count":90,
			"type":"SCALAR"
		},
		{
			"bufferView":36,
			"componentType":5126,
			"count":30,
			"max":[
				0.045822225511074066,
				0.037542615085840225,
				1.9744672775268555
			],
			"min":[
				-1.3639805316925049,
				-0.7347770929336548,
				-1.0362011194229126
			],
			"type":"VEC3"
		},
		{
			"bufferView":37,
			"componentType":5126,
			"count":30,
			"type":"VEC3"
		},
		{
			"bufferView":38,
			"componentType":5126,
			"count":30,
			"type":"VEC2"
		},
		{
			"bufferView":39,
			"componentType":5123,
			"count":84,
			"type":"SCALAR"
		},
		{
			"bufferView":40,
			"componentType":5126,
			"count":30,
			"max":[
				0.045822225511074066,
				0.037542615085840225,
				1.9744672775268555
			],
			"min":[
				-1.3639805316925049,
				-0.7347770929336548,
				-1.0362011194229126
			],
			"type":"VEC3"
		},
		{
			"bufferView":41,
			"componentType":5126,
			"count":30,
			"type":"VEC3"
		},
		{
			"bufferView":42,
			"componentType":5126,
			"count":30,
			"type":"VEC2"
		},
		{
			"bufferView":43,
			"componentType":5126,
			"count":395,
			"max":[
				0.03582518547773361,
				-0.0032302141189575195,
				0.03582536801695824
			],
			"min":[
				-0.03582515940070152,
				-0.7248388528823853,
				-0.0358249694108963
			],
			"type":"VEC3"
		},
		{
			"bufferView":44,
			"componentType":5126,
			"count":395,
			"type":"VEC3"
		},
		{
			"bufferView":45,
			"componentType":5126,
			"count":395,
			"type":"VEC2"
		},
		{
			"bufferView":46,
			"componentType":5123,
			"count":1914,
			"type":"SCALAR"
		},
		{
			"bufferView":47,
			"componentType":5126,
			"count":395,
			"max":[
				0.03582518547773361,
				-0.0032302141189575195,
				0.03582536801695824
			],
			"min":[
				-0.03582515940070152,
				-0.7248388528823853,
				-0.0358249694108963
			],
			"type":"VEC3"
		},
		{
			"bufferView":48,
			"componentType":5126,
			"count":395,
			"type":"VEC3"
		},
		{
			"bufferView":49,
			"componentType":5126,
			"count":395,
			"type":"VEC2"
		}
	],
	"bufferViews":[
		{
			"buffer":0,
			"byteLength":6360,
			"byteOffset":0,
			"target":34962
		},
		{
			"buffer":0,
			"byteLength":6360,
			"byteOffset":6360,
			"target":34962
		},
		{
			"buffer":0,
			"byteLength":4240,
			"byteOffset":12720,
			"target":34962
		},
		{
			"buffer":0,
			"byteLength":5928,
			"byteOffset":16960,
			"target":34963
		},
		{
			"buffer":0,
			"byteLength":2544,
			"byteOffset":22888,
			"target":34962
		},
		{
			"buffer":0,
			"byteLength":2544,
			"byteOffset":25432,
			"target":34962
		},
		{
			"buffer":0,
			"byteLength":1696,
			"byteOffset":27976,
			"target":34962
		},
		{
			"buffer":0,
			"byteLength":2034,
			"byteOffset":29672,
			"target":34963
		},
		{
			"buffer":0,
			"byteLength":1152,
			"byteOffset":31708,
			"target":34962
		},
		{
			"buffer":0,
			"byteLength":1152,
			"byteOffset":32860,
			"target":34962
		},
		{
			"buffer":0,
			"byteLength":768,
			"byteOffset":34012,
			"target":34962
		},
		{
			"buffer":0,
			"byteLength":768,
			"byteOffset":34780,
			"target":34963
		},
		{
			"buffer":0,
			"byteLength":5244,
			"byteOffset":35548,
			"target":34962
		},
		{
			"buffer":0,
			"byteLength":5244,
			"byteOffset":40792,
			"target":34962
		},
		{
			"buffer":0,
			"byteLength":3496,
			"byteOffset":46036,
			"target":34962
		},
		{
			"buffer":0,
			"byteLength":5472,
			"byteOffset":49532,
			"target":34963
		},
		{
			"buffer":0,
			"byteLength":9768,
			"byteOffset":55004,
			"target":34962
		},
		{
			"buffer":0,
			"byteLength":9768,
			"byteOffset":64772,
			"target":34962
		},
		{
			"buffer":0,
			"byteLength":6512,
			"byteOffset":74540,
			"target":34962
		},
		{
			"buffer":0,
			"byteLength":8448,
			"byteOffset":81052,
			"target":34963
		},
		{
			"buffer":0,
			"byteLength":1140,
			"byteOffset":89500,
			"target":34962
		},
		{
			"buffer":0,
			"byteLength":1140,
			"byteOffset":90640,
			"target":34962
		},
		{
			"buffer":0,
			"byteLength":760,
			"byteOffset":91780,
			"target":34962
		},
		{
			"buffer":0,
			"byteLength":600,
			"byteOffset":92540,
			"target":34963
		},
		{
			"buffer":0,
			"byteLength":2232,
			"byteOffset":93140,
			"target":34962
		},
		{
			"buffer":0,
			"byteLength":2232,
			"byteOffset":95372,
			"target":34962
		},
		{
			"buffer":0,
			"byteLength":1488,
			"byteOffset":97604,
			"target":34962
		},
		{
			"buffer":0,
			"byteLength":1668,
			"byteOffset":99092,
			"target":34963
		},
		{
			"buffer":0,
			"byteLength":4608,
			"byteOffset":100760,
			"target":34962
		},
		{
			"buffer":0,
			"byteLength":4608,
			"byteOffset":105368,
			"target":34962
		},
		{
			"buffer":0,
			"byteLength":3072,
			"byteOffset":109976,
			"target":34962
		},
		{
			"buffer":0,
			"byteLength":3888,
			"byteOffset":113048,
			"target":34963
		},
		{
			"buffer":0,
			"byteLength":384,
			"byteOffset":116936,
			"target":34962
		},
		{
			"buffer":0,
			"byteLength":384,
			"byteOffset":117320,
			"target":34962
		},
		{
			"buffer":0,
			"byteLength":256,
			"byteOffset":117704,
			"target":34962
		},
		{
			"buffer":0,
			"byteLength":180,
			"byteOffset":117960,
			"target":34963
		},
		{
			"buffer":0,
			"byteLength":360,
			"byteOffset":118140,
			"target":34962
		},
		{
			"buffer":0,
			"byteLength":360,
			"byteOffset":118500,
			"target":34962
		},
		{
			"buffer":0,
			"byteLength":240,
			"byteOffset":118860,
			"target":34962
		},
		{
			"buffer":0,
			"byteLength":168,
			"byteOffset":119100,
			"target":34963
		},
		{
			"buffer":0,
			"byteLength":360,
			"byteOffset":119268,
			"target":34962
		},
		{
			"buffer":0,
			"byteLength":360,
			"byteOffset":119628,
			"target":34962
		},
		{
			"buffer":0,
			"byteLength":240,
			"byteOffset":119988,
			"target":34962
		},
		{
			"buffer":0,
			"byteLength":4740,
			"byteOffset":120228,
			"target":34962
		},
		{
			"buffer":0,
			"byteLength":4740,
			"byteOffset":124968,
			"target":34962
		},
		{
			"buffer":0,
			"byteLength":3160,
			"byteOffset":129708,
			"target":34962
		},
		{
			"buffer":0,
			"byteLength":3828,
			"byteOffset":132868,
			"target":34963
		},
		{
			"buffer":0,
			"byteLength":4740,
			"byteOffset":136696,
			"target":34962
		},
		{
			"buffer":0,
			"byteLength":4740,
			"byteOffset":141436,
			"target":34962
		},
		{
			"buffer":0,
			"byteLength":3160,
			"byteOffset":146176,
			"target":34962
		}
	],
	"samplers":[
		{
			"magFilter":9729,
			"minFilter":9987
		}
	],
	"buffers":[
		{
			"byteLength":149336,
			"uri":"final.bin"
		}
	]
}
